<svg width="94" height="94" viewBox="0 0 94 94" fill="none" xmlns="http://www.w3.org/2000/svg">
<g id="Frame 645">
<g id="Group 13">
<circle id="Ellipse 5" cx="47" cy="47" r="47" fill="#2387C0" fill-opacity="0.3"/>
<circle id="Ellipse 1" cx="47" cy="47" r="37" fill="#2387C0"/>
<path id="Vector" d="M59 37.3064H53.6875V35.9489C53.6875 34.8383 53.3021 33.9025 52.5312 33.1415C51.7604 32.3805 50.8125 32 49.6875 32H44.3125C43.1875 32 42.2396 32.3805 41.4688 33.1415C40.6979 33.9025 40.3125 34.8383 40.3125 35.9489V37.3064H35C33.875 37.3064 32.9271 37.6766 32.1562 38.417C31.3854 39.1574 31 40.1035 31 41.2553V46.5C31 47.3638 31.4375 47.7957 32.3125 47.7957V58.3468C32.3125 59.0461 32.5833 59.6631 33.125 60.1979C33.6667 60.7326 34.2917 61 35 61H59C59.7083 61 60.3333 60.7326 60.875 60.1979C61.4167 59.6631 61.6875 59.0461 61.6875 58.3468V47.7957C62.5625 47.7957 63 47.3638 63 46.5V41.2553C63 40.1035 62.6146 39.1574 61.8438 38.417C61.0729 37.6766 60.125 37.3064 59 37.3064ZM43 35.9489C43 35.5787 43.125 35.2702 43.375 35.0234C43.625 34.7766 43.9375 34.6532 44.3125 34.6532H49.6875C50.0625 34.6532 50.375 34.7766 50.625 35.0234C50.875 35.2702 51 35.5787 51 35.9489V37.3064H43V35.9489ZM35 58.3468V47.7957H43V51.7447C43 52.4851 43.2604 53.1124 43.7812 53.6266C44.3021 54.1408 44.9375 54.3979 45.6875 54.3979H48.3125C49.0625 54.3979 49.6979 54.1408 50.2188 53.6266C50.7396 53.1124 51 52.4851 51 51.7447V47.7957H59V58.3468H35ZM45.6875 51.7447V47.7957H48.3125V51.7447H45.6875ZM60.3125 45.2043H33.6875V41.2553C33.6875 40.3504 34.125 39.8979 35 39.8979H59C59.875 39.8979 60.3125 40.3504 60.3125 41.2553V45.2043Z" fill="white"/>
</g>
</g>
</svg>
